<mxfile host="app.diagrams.net" modified="2024-02-06T14:30:22.274Z" agent="Mozilla/5.0 (Windows NT 10.0; Win64; x64) AppleWebKit/537.36 (KHTML, like Gecko) Chrome/121.0.0.0 Safari/537.36" etag="d_llLRMpnLbuTO5jI-Yh" version="21.6.9" type="device">
  <diagram name="PÃ¡gina-1" id="Page-1">
    <mxGraphModel dx="1434" dy="746" grid="1" gridSize="10" guides="1" tooltips="1" connect="1" arrows="1" fold="1" page="1" pageScale="1" pageWidth="827" pageHeight="1169" math="0" shadow="0">
      <root>
        <mxCell id="0" />
        <mxCell id="1" parent="0" />
        <UserObject label="&lt;div style=&quot;font-size: 1px&quot;&gt;&lt;/div&gt;" tags="Fluxograma" id="KKUvL782GilEZLcGZL-8-54">
          <mxCell style="verticalAlign=middle;align=center;overflow=width;vsdxID=55;fillColor=#345593;gradientColor=none;shape=stencil(tVJBDsIgEHwNRxoKMdZzrf8gFloiQrOgrb8XpMbWWi/G2+zO7G4GBrHStbwTiBLnwZ5Er2rfIrZHlCrTClA+IMQqxEppQTRgL6ZOdcejMqKzvcYNQ5rL82y7i1OU3MYOIY/6kORamYm8KDKaf5NzOAYOltth1G+SfH3hk8d8UA6D9dwra2ac5tAIHE5hqXkzo1wvRLdof/SytP6Tk/WX/IuXAF5/KpXWKRJT/j0DoZXyw6o7);strokeColor=#31528f;spacingTop=-1;spacingBottom=-1;spacingLeft=-1;spacingRight=-1;points=[[0.5,1,0],[0.5,0,0],[0,0.5,0],[1,0.5,0]];labelBackgroundColor=none;rounded=0;html=1;whiteSpace=wrap;" parent="1" vertex="1">
            <mxGeometry x="434" y="470" width="169" height="40" as="geometry" />
          </mxCell>
        </UserObject>
        <UserObject label="&lt;div style=&quot;font-size: 1px&quot;&gt;&lt;/div&gt;" tags="Fluxograma" id="2">
          <mxCell style="verticalAlign=middle;align=center;overflow=width;vsdxID=50;fillColor=#4672c4;gradientColor=none;shape=stencil(nZBLDoAgDERP0z3SIyjew0SURgSD+Lu9kMZoXLhwN9O+tukAlrNpJg1SzDH4QW/URgNYgZTkjA4UkwJUgGXng+6DX1zLfmoymdXo17xh5zmRJ6Q42BWCfc2oJfdAr+Yv+AP9Cb7OJ3H/2JG1HNGz/84klThPVCc=);strokeColor=#c8c8c8;spacingTop=-1;spacingBottom=-1;spacingLeft=-1;spacingRight=-1;points=[[1,0.5,0],[0.5,0.5,0],[0.5,0,0]];labelBackgroundColor=none;rounded=0;html=1;whiteSpace=wrap;" parent="1" vertex="1">
            <mxGeometry x="18" y="247" width="244" height="60" as="geometry" />
          </mxCell>
        </UserObject>
        <UserObject label="&lt;div style=&quot;font-size: 1px&quot;&gt;&lt;font style=&quot;font-size:12.7px;font-family:Calibri;color:#ffffff;direction:ltr;letter-spacing:0px;line-height:120%;opacity:1&quot;&gt;&amp;lt;Service&amp;gt;&lt;br/&gt;&lt;/font&gt;&lt;/div&gt;" tags="Fundo" id="3">
          <mxCell style="verticalAlign=middle;align=center;overflow=width;vsdxID=51;fillColor=none;gradientColor=none;shape=stencil(nZBLDoAgDERP0z3SIyjew0SURgSD+Lu9kMZoXLhwN9O+tukAlrNpJg1SzDH4QW/URgNYgZTkjA4UkwJUgGXng+6DX1zLfmoymdXo17xh5zmRJ6Q42BWCfc2oJfdAr+Yv+AP9Cb7OJ3H/2JG1HNGz/84klThPVCc=);strokeColor=none;points=[];labelBackgroundColor=none;rounded=0;html=1;whiteSpace=wrap;" parent="1" vertex="1">
            <mxGeometry x="102" y="282.5" width="70" height="17" as="geometry" />
          </mxCell>
        </UserObject>
        <UserObject label="&lt;div style=&quot;font-size: 1px&quot;&gt;&lt;font style=&quot;font-size:12.7px;font-family:Calibri;color:#ffffff;direction:ltr;letter-spacing:0px;line-height:120%;opacity:1&quot;&gt;ins-sls-property-premium-market-factors-list-be&lt;br/&gt;&lt;/font&gt;&lt;/div&gt;" tags="Fundo" id="4">
          <mxCell style="verticalAlign=middle;align=center;overflow=width;vsdxID=52;fillColor=none;gradientColor=none;shape=stencil(nZBLDoAgDERP0z3SIyjew0SURgSD+Lu9kMZoXLhwN9O+tukAlrNpJg1SzDH4QW/URgNYgZTkjA4UkwJUgGXng+6DX1zLfmoymdXo17xh5zmRJ6Q42BWCfc2oJfdAr+Yv+AP9Cb7OJ3H/2JG1HNGz/84klThPVCc=);strokeColor=none;points=[];labelBackgroundColor=none;rounded=0;html=1;whiteSpace=wrap;" parent="1" vertex="1">
            <mxGeometry x="18" y="264" width="244" height="12" as="geometry" />
          </mxCell>
        </UserObject>
        <UserObject label="" tags="Conector" id="47">
          <mxCell style="vsdxID=54;edgeStyle=none;startArrow=none;endArrow=block;startSize=5;endSize=5;strokeColor=#4672c4;spacingTop=0;spacingBottom=0;spacingLeft=0;spacingRight=0;verticalAlign=middle;html=1;labelBackgroundColor=#ffffff;rounded=0;entryX=0;entryY=0.5;entryDx=0;entryDy=0;entryPerimeter=0;" parent="1" edge="1" target="KKUvL782GilEZLcGZL-8-55">
            <mxGeometry relative="1" as="geometry">
              <mxPoint as="offset" />
              <Array as="points">
                <mxPoint x="147" y="310" />
                <mxPoint x="147" y="327.76" />
                <mxPoint x="150" y="600" />
              </Array>
              <mxPoint x="147" y="277.76" as="sourcePoint" />
              <mxPoint x="440" y="730" as="targetPoint" />
            </mxGeometry>
          </mxCell>
        </UserObject>
        <UserObject label="&lt;div style=&quot;font-size: 1px&quot;&gt;&lt;/div&gt;" tags="Fluxograma" id="5">
          <mxCell style="verticalAlign=middle;align=center;overflow=width;vsdxID=55;fillColor=#345593;gradientColor=none;shape=stencil(tVJBDsIgEHwNRxoKMdZzrf8gFloiQrOgrb8XpMbWWi/G2+zO7G4GBrHStbwTiBLnwZ5Er2rfIrZHlCrTClA+IMQqxEppQTRgL6ZOdcejMqKzvcYNQ5rL82y7i1OU3MYOIY/6kORamYm8KDKaf5NzOAYOltth1G+SfH3hk8d8UA6D9dwra2ac5tAIHE5hqXkzo1wvRLdof/SytP6Tk/WX/IuXAF5/KpXWKRJT/j0DoZXyw6o7);strokeColor=#31528f;spacingTop=-1;spacingBottom=-1;spacingLeft=-1;spacingRight=-1;points=[[0.5,1,0],[0.5,0,0],[0,0.5,0],[1,0.5,0]];labelBackgroundColor=none;rounded=0;html=1;whiteSpace=wrap;" parent="1" vertex="1">
            <mxGeometry x="431" y="193" width="169" height="40" as="geometry" />
          </mxCell>
        </UserObject>
        <UserObject label="&lt;div style=&quot;font-size: 1px&quot;&gt;&lt;font style=&quot;font-size:12.7px;font-family:Calibri;color:#000000;direction:ltr;letter-spacing:0px;line-height:120%;opacity:1&quot;&gt;GET/property/pricing/marketFactorsBusiness&lt;br/&gt;&lt;/font&gt;&lt;/div&gt;" tags="Fundo" id="6">
          <mxCell style="verticalAlign=middle;align=center;overflow=width;vsdxID=56;fillColor=none;gradientColor=none;shape=stencil(nZBLDoAgDERP0z3SIyjew0SURgSD+Lu9kMZoXLhwN9O+tukAlrNpJg1SzDH4QW/URgNYgZTkjA4UkwJUgGXng+6DX1zLfmoymdXo17xh5zmRJ6Q42BWCfc2oJfdAr+Yv+AP9Cb7OJ3H/2JG1HNGz/84klThPVCc=);strokeColor=none;points=[];labelBackgroundColor=none;rounded=0;html=1;whiteSpace=wrap;" parent="1" vertex="1">
            <mxGeometry x="142" y="189" width="256" height="18" as="geometry" />
          </mxCell>
        </UserObject>
        <UserObject label="&lt;div style=&quot;font-size: 1px&quot;&gt;&lt;font style=&quot;font-size:12.7px;font-family:Calibri;color:#ffffff;direction:ltr;letter-spacing:0px;line-height:120%;opacity:1&quot;&gt;marketFactorBusiness&lt;br/&gt;&lt;/font&gt;&lt;/div&gt;" tags="Fundo" id="8">
          <mxCell style="verticalAlign=middle;align=center;overflow=width;vsdxID=58;fillColor=none;gradientColor=none;shape=stencil(nZBLDoAgDERP0z3SIyjew0SURgSD+Lu9kMZoXLhwN9O+tukAlrNpJg1SzDH4QW/URgNYgZTkjA4UkwJUgGXng+6DX1zLfmoymdXo17xh5zmRJ6Q42BWCfc2oJfdAr+Yv+AP9Cb7OJ3H/2JG1HNGz/84klThPVCc=);strokeColor=none;points=[];labelBackgroundColor=none;rounded=0;html=1;whiteSpace=wrap;" parent="1" vertex="1">
            <mxGeometry x="444" y="201" width="136" height="24" as="geometry" />
          </mxCell>
        </UserObject>
        <UserObject label="&lt;div style=&quot;font-size: 1px&quot;&gt;&lt;font style=&quot;font-size:12.7px;font-family:Calibri;color:#000000;direction:ltr;letter-spacing:0px;line-height:120%;opacity:1&quot;&gt;GET/property/pricing/marketFactors&lt;br/&gt;&lt;/font&gt;&lt;/div&gt;" tags="Fundo" id="10">
          <mxCell style="verticalAlign=middle;align=center;overflow=width;vsdxID=60;fillColor=none;gradientColor=none;shape=stencil(nZBLDoAgDERP0z3SIyjew0SURgSD+Lu9kMZoXLhwN9O+tukAlrNpJg1SzDH4QW/URgNYgZTkjA4UkwJUgGXng+6DX1zLfmoymdXo17xh5zmRJ6Q42BWCfc2oJfdAr+Yv+AP9Cb7OJ3H/2JG1HNGz/84klThPVCc=);strokeColor=none;points=[];labelBackgroundColor=none;rounded=0;html=1;whiteSpace=wrap;" parent="1" vertex="1">
            <mxGeometry x="120" y="343" width="256" height="18" as="geometry" />
          </mxCell>
        </UserObject>
        <UserObject label="&lt;div style=&quot;font-size: 1px&quot;&gt;&lt;font style=&quot;font-size:16.93px;font-family:Calibri;color:#ffffff;direction:ltr;letter-spacing:0px;line-height:120%;opacity:1&quot;&gt;MongoDB&lt;br/&gt;&lt;/font&gt;&lt;/div&gt;" tags="Fundo" id="19">
          <mxCell style="verticalAlign=middle;align=center;overflow=width;vsdxID=70;fillColor=none;gradientColor=none;shape=stencil(nZBLDoAgDERP0z3SIyjew0SURgSD+Lu9kMZoXLhwN9O+tukAlrNpJg1SzDH4QW/URgNYgZTkjA4UkwJUgGXng+6DX1zLfmoymdXo17xh5zmRJ6Q42BWCfc2oJfdAr+Yv+AP9Cb7OJ3H/2JG1HNGz/84klThPVCc=);strokeColor=none;points=[];labelBackgroundColor=none;rounded=0;html=1;whiteSpace=wrap;" parent="1" vertex="1">
            <mxGeometry x="479" y="17" width="121" height="25" as="geometry" />
          </mxCell>
        </UserObject>
        <mxCell id="3mUld3ImA2alMsv6uwuS-53" style="edgeStyle=orthogonalEdgeStyle;rounded=0;orthogonalLoop=1;jettySize=auto;html=1;exitX=0;exitY=0.5;exitDx=0;exitDy=0;exitPerimeter=0;entryX=1;entryY=0.5;entryDx=0;entryDy=0;entryPerimeter=0;fillColor=#1ba1e2;strokeColor=#006EAF;" edge="1" parent="1" source="28" target="30">
          <mxGeometry relative="1" as="geometry">
            <Array as="points">
              <mxPoint x="1070" y="406" />
              <mxPoint x="1031" y="406" />
            </Array>
          </mxGeometry>
        </mxCell>
        <UserObject label="&lt;div style=&quot;font-size: 1px&quot;&gt;&lt;/div&gt;" tags="Fluxograma" id="28">
          <mxCell style="verticalAlign=middle;align=center;overflow=width;vsdxID=86;fillColor=#4672c4;gradientColor=none;shape=stencil(1VNBEoMgDHwNRxyEqT7Atv9gKipTCk6kVX9fKGrVKYceeuhtN9kksyQgVnQNbwWipLNgrqKXpW0QOyJKpW4ESOsQYifEisqAqMHcdRl4y73So5t5+A5DqMuTg6+hZAycvNg5SJXUK2lKSFzK4eIyMEkzluRTXxjn6iyhUyzScOED5oPsMBjLrTR6PY4oDrXAbhyuFK83qa4Xol2F07iXve159Fduso2bzy/5Ey8OvPdZSaXCOSz52LL/boMk6nrn2IH9xbtQ+C3s9AQ=);strokeColor=#c8c8c8;spacingTop=-1;spacingBottom=-1;spacingLeft=-1;spacingRight=-1;points=[[0,0.5,0],[0.5,0,0],[0.5,1,0],[1.07,0.5,0],[1,0.5,0]];labelBackgroundColor=none;rounded=0;html=1;whiteSpace=wrap;" parent="1" vertex="1">
            <mxGeometry x="1048" y="379" width="100" height="60" as="geometry" />
          </mxCell>
        </UserObject>
        <UserObject label="&lt;div style=&quot;font-size: 1px&quot;&gt;&lt;p style=&quot;text-align:center;margin-left:0;margin-right:0;margin-top:0px;margin-bottom:0px;text-indent:0;vertical-align:middle;direction:ltr;&quot;&gt;&lt;font style=&quot;font-size:14.11px;font-family:Calibri;color:#ffffff;direction:ltr;letter-spacing:0px;line-height:120%;opacity:1&quot;&gt;&lt;b&gt;Portal Web&lt;br/&gt;&lt;/b&gt;&lt;/font&gt;&lt;/p&gt;&lt;p style=&quot;text-align:center;margin-left:0;margin-right:0;margin-top:0px;margin-bottom:0px;text-indent:0;vertical-align:middle;direction:ltr;&quot;&gt;&lt;font style=&quot;font-size:14.11px;font-family:Calibri;color:#ffffff;direction:ltr;letter-spacing:0px;line-height:120%;opacity:1&quot;&gt;&lt;b&gt;DW&lt;br/&gt;&lt;/b&gt;&lt;/font&gt;&lt;/p&gt;&lt;/div&gt;" tags="Fundo" id="29">
          <mxCell style="verticalAlign=middle;align=center;overflow=width;vsdxID=90;fillColor=none;gradientColor=none;shape=stencil(nZBLDoAgDERP0z3SIyjew0SURgSD+Lu9kMZoXLhwN9O+tukAlrNpJg1SzDH4QW/URgNYgZTkjA4UkwJUgGXng+6DX1zLfmoymdXo17xh5zmRJ6Q42BWCfc2oJfdAr+Yv+AP9Cb7OJ3H/2JG1HNGz/84klThPVCc=);strokeColor=none;points=[];labelBackgroundColor=none;rounded=0;html=1;whiteSpace=wrap;" parent="1" vertex="1">
            <mxGeometry x="1059.5" y="389" width="77" height="34" as="geometry" />
          </mxCell>
        </UserObject>
        <UserObject label="" tags="Fundo" id="30">
          <mxCell style="vsdxID=91;fillColor=none;gradientColor=none;strokeColor=none;points=[[1,0.5,0],[1,0.5,0],[0.5,0,0],[0.15,0.85,0],[0.85,0.85,0],[0.15,0.15,0],[0.85,0.15,0]];labelBackgroundColor=none;rounded=0;html=1;whiteSpace=wrap;" parent="1" vertex="1">
            <mxGeometry x="948" y="384" width="43" height="43" as="geometry" />
          </mxCell>
        </UserObject>
        <mxCell id="31" style="vsdxID=92;fillColor=#4672c4;gradientColor=none;shape=stencil(tZrbchs3DIafxpfm8Hy4TtP30CSyralre2SnUd6+YKUFuD+0lDud3tkSV58IAvgBUHfhy/vT7m1/5+37x/H1j/3Pw/ePp7vw2533h5en/fHwQX/dha934cvD63H/eHz98fL9/P/brq/sf/35+lf/hNP5uRRNbP0pb3+dX3HW/vP/7+fl334cz+vd5QFn0mW9Wz9gT/78Qqy8xOOScFmSTHKXNeFT3EhftK7BrZnoAB1Ma2t2o28TgR5MBXorJuQpPxgPG2/B5AB8bxLwazPNA98bC/yajWtTvjO1rfk1mYh8Z3IBfjIW+dbUCPxoqp/xQ+HNMj8am9b8EE32wPempDU/OFMa8J2xU/vTMx7w1hSgWzlXL4sc0K2cpNDddPe+GAf0YKJf433gkx6Mn+sa7y3bg/HFtDTDu2Z8BH4zNq75rsrGFn5dPpn5LpuWFf/iNVt88rQMfHJYML8L8smeXQT377yJBfjBuDrlo/HJgcD4zmrji5sPcAeRV9oteDShrPkla+Nnk8H3iueQZX6VKL68lJspU8/vhw/Gz/IS85sJcPiZDl/hG+KrCW6KL8ZD5OWkEi95SEO8Nx7PPhkX1vxEX+mW+RuYn54JkHicONrCp1UOjz+q46dVdh57lgOd+YXDYeFnUwLgMycjzjzsNUzPxs8jzxQIfHrE1jXc6r1T3slruAUyC/8G2QKWdZ+pa6So/gZRNH+LKBE0iD4etElg6Chph3OsnIZIfpm6WWYtZTgpPsgr+YKDIO+KX9Z0yoMV6H7R4G0nz3DOg+APQWYRT/bQQebBySNrznaCb1BdkeAn8LOeCiDBd8HXOQa8XPR+kuKguOl6jzmGUhzQ7VK1zDJsF/x5hs0mQYYlwccoozPyEGYU0RWt71SKlfjcTjENtt8tgnwqkaC2GxR/UDgP8krHdsk7W3zaBjh/V3yU92QC1LZd8QGvqwv6RmGOr/KVnewVBbaJDg2aD7HXq6uo+PPSstdtEHxd8yHx9BIwAj9z1A7FZYDU4+qN6o6eKbj/xibh4pZMguYXzR9K64yNVbtx/BTDCXu6ogqM3gAgP6nqkvKRxf2nxXDbrU2G8OuiD+7f8yEkH6erS1rVoLoW0d/ie+4QpadV1X3kIlUqHJaZobNE5Qk3rB+HrkFEH5yPhDBA7rPc6U2a6nlLXbGVh0Z+6PXXmr8Qx+nBZ4hUliRINFapTC9wMNCl3hoKpzXYL7G4xc4qyjIX9swuUgZIkrHgZAnk3fE8YYtdl/5y9PClU2Z4lUpTKz7Dm2pfRfG3ihuv+jeHBawkfIYXA+7dmwWd3KbSTo9U3HpbWg6hN+4mx+QGW6dVGbWNq40Nfm/CMLllZfre0OHMKi6yxfxyxfT+RvtQryT3QbaWVnWo8we5B37VDcRNcaUOXCU3kXvmS0M7uF6A469Fwlf0fj43qlXXNlXVNn2aoc/fFcXH2s7bW/wkE6lF76GyILNi69zFHuE8oRoLy4uJJocPxh/EnvlWin8t9sy3qrISsd/iy+yN+SL2zI/K+UnscfvRVIg90fpt21uw/aD1jE8caENXUyHh06qm8PO6ipwqgesNUr/gW5DqU0v9gm9ZphBK6zf4rarBzSD2zG9K2qNOPTxB/3Q3LU+I3EesqS008aT4AbtZJJPoz7fdVDlJuo9oMk6BXpZWYTnfiiowSMfdtJzvY3kcGGWOwyHjYDnZxR8UZ8yLw8DoVsYJ4HaD/g9ejxk3VaV4V6KO9P9G1A3hLPofMON7pTi9BIByvicdKHYyD9+2kx7avxcBGPVWnX9uKuyqU/bvRcBc8YKyfy8CUHESj5B5Xpt5Osn8KraUIiBMKx51TWPVsLryZJZn1c7g1ou+J/CLBGyh+RZpvKRJePRRrnIG/Ue9CUrv+j3B/Oj1uLJvVetdgU5qvM0Yiq2q+G06LS0yGx0uyTLwuzfgJZn4zFhsXrmkmvL7XF4fPta6VWWeqpu5HmYe8VN2UnPqHuOw9z6UR9cbrvGGoTzunTPRdo8TtO0t+F7PhHhHlbDNSDrqaFGdRt0wkx+uyDLYfhjK8/1wUHVuby6BT0I0HyL1rhX4TY7wJBKH96Nd/8H1r7TVcDv+fHj5N5f46zt/H/gy8/L8avHu+I3eOl4WU7OwiMLxl3rpxHHXrn2iPd3vTof3++Prx+7j8PpyfvPy3vPu+Li/J9r9w/Pu8fLR57fef+73b8PL//X7be34f/l+9If82uLh8Px8/rHG+D7+OoNeOv+yI3z9Gw==);strokeColor=#939393;spacingTop=-3;spacingBottom=-3;spacingLeft=-3;spacingRight=-3;points=[[0.5,1,0],[1,0.5,0],[0,0.5,0],[0.5,0,0],[0.15,0.85,0],[0.85,0.85,0],[0.15,0.15,0],[0.85,0.15,0]];labelBackgroundColor=none;rounded=0;html=1;whiteSpace=wrap;" parent="30" vertex="1">
          <mxGeometry width="43" height="43" as="geometry" />
        </mxCell>
        <UserObject label="&lt;div style=&quot;font-size: 1px&quot;&gt;&lt;font style=&quot;font-size:16.93px;font-family:Calibri;color:#000000;direction:ltr;letter-spacing:0px;line-height:120%;opacity:1&quot;&gt;&lt;b&gt;ETL&lt;br/&gt;&lt;/b&gt;&lt;/font&gt;&lt;/div&gt;" tags="Fundo" id="32">
          <mxCell style="verticalAlign=middle;align=center;overflow=width;vsdxID=93;fillColor=none;gradientColor=none;shape=stencil(nZBLDoAgDERP0z3SIyjew0SURgSD+Lu9kMZoXLhwN9O+tukAlrNpJg1SzDH4QW/URgNYgZTkjA4UkwJUgGXng+6DX1zLfmoymdXo17xh5zmRJ6Q42BWCfc2oJfdAr+Yv+AP9Cb7OJ3H/2JG1HNGz/84klThPVCc=);strokeColor=none;points=[];labelBackgroundColor=none;rounded=0;html=1;whiteSpace=wrap;" parent="1" vertex="1">
            <mxGeometry x="944" y="427" width="51" height="26" as="geometry" />
          </mxCell>
        </UserObject>
        <UserObject label="&lt;div style=&quot;font-size: 1px&quot;&gt;&lt;p style=&quot;text-align:center;margin-left:0;margin-right:0;margin-top:0px;margin-bottom:0px;text-indent:0;vertical-align:middle;direction:ltr;&quot;&gt;&lt;font style=&quot;font-size:14.11px;font-family:Calibri;color:#ffffff;direction:ltr;letter-spacing:0px;line-height:120%;opacity:1&quot;&gt;Portal Web&lt;br/&gt;&lt;/font&gt;&lt;/p&gt;&lt;p style=&quot;text-align:center;margin-left:0;margin-right:0;margin-top:0px;margin-bottom:0px;text-indent:0;vertical-align:middle;direction:ltr;&quot;&gt;&lt;font style=&quot;font-size:14.11px;font-family:Calibri;color:#ffffff;direction:ltr;letter-spacing:0px;line-height:120%;opacity:1&quot;&gt;DW&lt;br/&gt;&lt;/font&gt;&lt;/p&gt;&lt;/div&gt;" tags="Fundo" id="33">
          <mxCell style="verticalAlign=middle;align=center;overflow=width;vsdxID=97;fillColor=none;gradientColor=none;shape=stencil(nZBLDoAgDERP0z3SIyjew0SURgSD+Lu9kMZoXLhwN9O+tukAlrNpJg1SzDH4QW/URgNYgZTkjA4UkwJUgGXng+6DX1zLfmoymdXo17xh5zmRJ6Q42BWCfc2oJfdAr+Yv+AP9Cb7OJ3H/2JG1HNGz/84klThPVCc=);strokeColor=none;points=[];labelBackgroundColor=none;rounded=0;html=1;whiteSpace=wrap;" parent="1" vertex="1">
            <mxGeometry x="523" y="358" width="77" height="21" as="geometry" />
          </mxCell>
        </UserObject>
        <UserObject label="" tags="Fundo" id="34">
          <mxCell style="vsdxID=100;fillColor=none;gradientColor=none;strokeColor=none;points=[];labelBackgroundColor=none;rounded=0;html=1;whiteSpace=wrap;" parent="1" vertex="1">
            <mxGeometry x="729" y="370" width="168" height="71" as="geometry" />
          </mxCell>
        </UserObject>
        <mxCell id="35" style="vsdxID=101;fillColor=#4672c4;gradientColor=none;shape=stencil(UzV2Ls5ILEhVNTIoLinKz04tz0wpyVA1dlE1MsrMy0gtyiwBslSNXVWNndPyi1LTi/JL81Ig/IJEkEoQKze/DGRCBUSfAUiHkUElhGdoAOG7QZTmZOYhKYVJkqUYr1JzPQsLVKPN9MwtSdNBUAtJjifZfJI14HUOkIGIsLTMnBxIfCPLo0cwUAiSOIxdAQ==);strokeColor=#939393;spacingTop=-3;spacingBottom=-3;spacingLeft=-3;spacingRight=-3;points=[];labelBackgroundColor=none;rounded=0;html=1;whiteSpace=wrap;" parent="34" vertex="1">
          <mxGeometry y="-4" width="152" height="71" as="geometry" />
        </mxCell>
        <mxCell id="36" style="vsdxID=102;fillColor=#4672c4;gradientColor=none;shape=stencil(nZBLDoAgDERP0z3SIyjew0SURgSD+Lu9kMZoXLhwN9O+tukAlrNpJg1SzDH4QW/URgNYgZTkjA4UkwJUgGXng+6DX1zLfmoymdXo17xh5zmRJ6Q42BWCfc2oJfdAr+Yv+AP9Cb7OJ3H/2JG1HNGz/84klThPVCc=);strokeColor=#939393;points=[];labelBackgroundColor=none;rounded=0;html=1;whiteSpace=wrap;" parent="34" vertex="1">
          <mxGeometry width="152" height="71" as="geometry" />
        </mxCell>
        <mxCell id="37" value="&lt;div style=&quot;font-size: 1px&quot;&gt;&lt;/div&gt;" style="text;vsdxID=100;fillColor=none;gradientColor=none;strokeColor=none;points=[];labelBackgroundColor=none;rounded=0;html=1;whiteSpace=wrap;verticalAlign=middle;align=center;overflow=width;;html=1;" parent="34" vertex="1">
          <mxGeometry y="-0.46" width="152.32" height="60.46" as="geometry" />
        </mxCell>
        <UserObject label="&lt;div style=&quot;font-size: 1px&quot;&gt;&lt;font style=&quot;font-size:16.93px;font-family:Calibri;color:#ffffff;direction:ltr;letter-spacing:0px;line-height:120%;opacity:1&quot;&gt;BASE SQL&lt;/font&gt;&lt;/div&gt;&lt;div style=&quot;font-size: 1px&quot;&gt;&lt;font style=&quot;font-size:16.93px;font-family:Calibri;color:#ffffff;direction:ltr;letter-spacing:0px;line-height:120%;opacity:1&quot;&gt;(Rosie)&lt;/font&gt;&lt;/div&gt;" tags="Fundo" id="38">
          <mxCell style="verticalAlign=middle;align=center;overflow=width;vsdxID=103;fillColor=none;gradientColor=none;shape=stencil(nZBLDoAgDERP0z3SIyjew0SURgSD+Lu9kMZoXLhwN9O+tukAlrNpJg1SzDH4QW/URgNYgZTkjA4UkwJUgGXng+6DX1zLfmoymdXo17xh5zmRJ6Q42BWCfc2oJfdAr+Yv+AP9Cb7OJ3H/2JG1HNGz/84klThPVCc=);strokeColor=none;points=[];labelBackgroundColor=none;rounded=0;html=1;whiteSpace=wrap;" parent="34" vertex="1">
            <mxGeometry x="23.5" y="8" width="121" height="47" as="geometry" />
          </mxCell>
        </UserObject>
        <UserObject label="&lt;div style=&quot;font-size: 1px&quot;&gt;&lt;font style=&quot;font-size:12.7px;font-family:Calibri;color:#000000;direction:ltr;letter-spacing:0px;line-height:120%;opacity:1&quot;&gt;GET/property/pricing/marketFactorsCondominium&lt;br&gt;&lt;/font&gt;&lt;/div&gt;" tags="Fundo" id="40">
          <mxCell style="verticalAlign=middle;align=center;overflow=width;vsdxID=105;fillColor=none;gradientColor=none;shape=stencil(nZBLDoAgDERP0z3SIyjew0SURgSD+Lu9kMZoXLhwN9O+tukAlrNpJg1SzDH4QW/URgNYgZTkjA4UkwJUgGXng+6DX1zLfmoymdXo17xh5zmRJ6Q42BWCfc2oJfdAr+Yv+AP9Cb7OJ3H/2JG1HNGz/84klThPVCc=);strokeColor=none;points=[];labelBackgroundColor=none;rounded=0;html=1;whiteSpace=wrap;" parent="1" vertex="1">
            <mxGeometry x="146.5" y="576" width="277" height="18" as="geometry" />
          </mxCell>
        </UserObject>
        <UserObject label="" tags="Conector" id="50">
          <mxCell style="vsdxID=109;edgeStyle=none;startArrow=none;endArrow=block;startSize=5;endSize=5;strokeColor=#4672c4;spacingTop=0;spacingBottom=0;spacingLeft=0;spacingRight=0;verticalAlign=middle;html=1;labelBackgroundColor=#ffffff;rounded=0;exitX=0.107;exitY=1.13;exitDx=0;exitDy=0;exitPerimeter=0;entryX=-0.01;entryY=0.602;entryDx=0;entryDy=0;entryPerimeter=0;" parent="1" edge="1" target="KKUvL782GilEZLcGZL-8-51" source="10">
            <mxGeometry relative="1" as="geometry">
              <mxPoint as="offset" />
              <Array as="points" />
              <mxPoint x="150" y="364" as="sourcePoint" />
              <mxPoint x="420" y="364" as="targetPoint" />
            </mxGeometry>
          </mxCell>
        </UserObject>
        <mxCell id="44" parent="1" vertex="1">
          <mxGeometry x="546" y="213" as="geometry" />
        </mxCell>
        <UserObject label="" tags="Conector" id="45">
          <mxCell style="vsdxID=53;edgeStyle=none;startArrow=none;endArrow=block;startSize=5;endSize=5;strokeColor=#4672c4;spacingTop=0;spacingBottom=0;spacingLeft=0;spacingRight=0;verticalAlign=middle;html=1;labelBackgroundColor=#ffffff;rounded=0;exitX=0.5245901639344263;exitY=0;exitDx=0;exitDy=0;exitPerimeter=0;entryX=0;entryY=0.5;entryDx=0;entryDy=0;entryPerimeter=0;" parent="1" source="2" edge="1" target="5">
            <mxGeometry relative="1" as="geometry">
              <mxPoint x="-1" as="offset" />
              <Array as="points">
                <mxPoint x="146" y="212.78" />
              </Array>
              <mxPoint x="420" y="213" as="targetPoint" />
            </mxGeometry>
          </mxCell>
        </UserObject>
        <UserObject label="" tags="Conector" id="Jd6Wpb1d6zL5sztIMzMp-54">
          <mxCell style="vsdxID=109;edgeStyle=none;startArrow=none;endArrow=block;startSize=5;endSize=5;strokeColor=#4672c4;spacingTop=0;spacingBottom=0;spacingLeft=0;spacingRight=0;verticalAlign=middle;html=1;labelBackgroundColor=#ffffff;rounded=0;" parent="1" edge="1">
            <mxGeometry relative="1" as="geometry">
              <mxPoint as="offset" />
              <Array as="points">
                <mxPoint x="680" y="360" />
                <mxPoint x="680" y="410" />
              </Array>
              <mxPoint x="610" y="360" as="sourcePoint" />
              <mxPoint x="730" y="410" as="targetPoint" />
            </mxGeometry>
          </mxCell>
        </UserObject>
        <UserObject label="" tags="Conector" id="Jd6Wpb1d6zL5sztIMzMp-55">
          <mxCell style="vsdxID=109;edgeStyle=none;startArrow=none;endArrow=block;startSize=5;endSize=5;strokeColor=#4672c4;spacingTop=0;spacingBottom=0;spacingLeft=0;spacingRight=0;verticalAlign=middle;html=1;labelBackgroundColor=#ffffff;rounded=0;exitX=1;exitY=0.5;exitDx=0;exitDy=0;exitPerimeter=0;" parent="1" edge="1" source="KKUvL782GilEZLcGZL-8-54">
            <mxGeometry relative="1" as="geometry">
              <mxPoint as="offset" />
              <Array as="points">
                <mxPoint x="680" y="490" />
                <mxPoint x="680" y="410" />
              </Array>
              <mxPoint x="620" y="582" as="sourcePoint" />
              <mxPoint x="730" y="410" as="targetPoint" />
            </mxGeometry>
          </mxCell>
        </UserObject>
        <UserObject label="" tags="Conector" id="Jd6Wpb1d6zL5sztIMzMp-57">
          <mxCell style="vsdxID=109;edgeStyle=none;startArrow=none;endArrow=block;startSize=5;endSize=5;strokeColor=#4672c4;spacingTop=0;spacingBottom=0;spacingLeft=0;spacingRight=0;verticalAlign=middle;html=1;labelBackgroundColor=#ffffff;rounded=0;exitX=0;exitY=0.465;exitDx=0;exitDy=0;exitPerimeter=0;entryX=1.078;entryY=0.525;entryDx=0;entryDy=0;entryPerimeter=0;" parent="1" target="35" edge="1" source="30">
            <mxGeometry relative="1" as="geometry">
              <mxPoint as="offset" />
              <Array as="points" />
              <mxPoint x="920" y="470" as="sourcePoint" />
              <mxPoint x="890" y="400" as="targetPoint" />
            </mxGeometry>
          </mxCell>
        </UserObject>
        <UserObject label="&lt;div style=&quot;&quot;&gt;&lt;font face=&quot;Calibri&quot; color=&quot;#ffffff&quot;&gt;&lt;span style=&quot;font-size: 12.7px;&quot;&gt;factorAdjustmentBussiness&lt;/span&gt;&lt;/font&gt;&lt;/div&gt;" tags="Fundo" id="Jd6Wpb1d6zL5sztIMzMp-52">
          <mxCell style="verticalAlign=middle;align=center;overflow=width;vsdxID=59;fillColor=none;gradientColor=none;shape=stencil(nZBLDoAgDERP0z3SIyjew0SURgSD+Lu9kMZoXLhwN9O+tukAlrNpJg1SzDH4QW/URgNYgZTkjA4UkwJUgGXng+6DX1zLfmoymdXo17xh5zmRJ6Q42BWCfc2oJfdAr+Yv+AP9Cb7OJ3H/2JG1HNGz/84klThPVCc=);strokeColor=none;points=[];labelBackgroundColor=none;rounded=0;html=1;whiteSpace=wrap;" parent="1" vertex="1">
            <mxGeometry x="450.5" y="476" width="136" height="24" as="geometry" />
          </mxCell>
        </UserObject>
        <UserObject label="&lt;div style=&quot;font-size: 1px&quot;&gt;&lt;font style=&quot;font-size:12.7px;font-family:Calibri;color:#000000;direction:ltr;letter-spacing:0px;line-height:120%;opacity:1&quot;&gt;POST/property/pricing/factorAdjustmentBusiness&lt;br&gt;&lt;/font&gt;&lt;/div&gt;" tags="Fundo" id="Jd6Wpb1d6zL5sztIMzMp-63">
          <mxCell style="verticalAlign=middle;align=center;overflow=width;vsdxID=105;fillColor=none;gradientColor=none;shape=stencil(nZBLDoAgDERP0z3SIyjew0SURgSD+Lu9kMZoXLhwN9O+tukAlrNpJg1SzDH4QW/URgNYgZTkjA4UkwJUgGXng+6DX1zLfmoymdXo17xh5zmRJ6Q42BWCfc2oJfdAr+Yv+AP9Cb7OJ3H/2JG1HNGz/84klThPVCc=);strokeColor=none;points=[];labelBackgroundColor=none;rounded=0;html=1;whiteSpace=wrap;" parent="1" vertex="1">
            <mxGeometry x="142" y="468" width="286" height="18" as="geometry" />
          </mxCell>
        </UserObject>
        <UserObject label="&lt;div style=&quot;&quot;&gt;&lt;font face=&quot;Calibri&quot; color=&quot;#ffffff&quot;&gt;&lt;span style=&quot;font-size: 12.7px;&quot;&gt;marketFactorsCodominium&lt;/span&gt;&lt;/font&gt;&lt;/div&gt;" tags="Fundo" id="o9HptYFVfzCK8pGl5tUY-53">
          <mxCell style="verticalAlign=middle;align=center;overflow=width;vsdxID=59;fillColor=none;gradientColor=none;shape=stencil(nZBLDoAgDERP0z3SIyjew0SURgSD+Lu9kMZoXLhwN9O+tukAlrNpJg1SzDH4QW/URgNYgZTkjA4UkwJUgGXng+6DX1zLfmoymdXo17xh5zmRJ6Q42BWCfc2oJfdAr+Yv+AP9Cb7OJ3H/2JG1HNGz/84klThPVCc=);strokeColor=none;points=[];labelBackgroundColor=none;rounded=0;html=1;whiteSpace=wrap;" parent="1" vertex="1">
            <mxGeometry x="550" y="933" width="136" height="24" as="geometry" />
          </mxCell>
        </UserObject>
        <UserObject label="&lt;div style=&quot;font-size: 1px&quot;&gt;&lt;/div&gt;" tags="Fluxograma" id="KKUvL782GilEZLcGZL-8-51">
          <mxCell style="verticalAlign=middle;align=center;overflow=width;vsdxID=55;fillColor=#345593;gradientColor=none;shape=stencil(tVJBDsIgEHwNRxoKMdZzrf8gFloiQrOgrb8XpMbWWi/G2+zO7G4GBrHStbwTiBLnwZ5Er2rfIrZHlCrTClA+IMQqxEppQTRgL6ZOdcejMqKzvcYNQ5rL82y7i1OU3MYOIY/6kORamYm8KDKaf5NzOAYOltth1G+SfH3hk8d8UA6D9dwra2ac5tAIHE5hqXkzo1wvRLdof/SytP6Tk/WX/IuXAF5/KpXWKRJT/j0DoZXyw6o7);strokeColor=#31528f;spacingTop=-1;spacingBottom=-1;spacingLeft=-1;spacingRight=-1;points=[[0.5,1,0],[0.5,0,0],[0,0.5,0],[1,0.5,0]];labelBackgroundColor=none;rounded=0;html=1;whiteSpace=wrap;" parent="1" vertex="1">
            <mxGeometry x="431" y="339" width="169" height="40" as="geometry" />
          </mxCell>
        </UserObject>
        <UserObject label="" tags="Conector" id="o9HptYFVfzCK8pGl5tUY-56">
          <mxCell style="vsdxID=109;edgeStyle=none;startArrow=none;endArrow=block;startSize=5;endSize=5;strokeColor=#4672c4;spacingTop=0;spacingBottom=0;spacingLeft=0;spacingRight=0;verticalAlign=middle;html=1;labelBackgroundColor=#ffffff;rounded=0;exitX=1;exitY=0.5;exitDx=0;exitDy=0;exitPerimeter=0;" parent="1" edge="1" source="KKUvL782GilEZLcGZL-8-55">
            <mxGeometry relative="1" as="geometry">
              <mxPoint as="offset" />
              <Array as="points">
                <mxPoint x="680" y="600" />
                <mxPoint x="680" y="410" />
              </Array>
              <mxPoint x="620" y="728" as="sourcePoint" />
              <mxPoint x="730" y="410" as="targetPoint" />
            </mxGeometry>
          </mxCell>
        </UserObject>
        <UserObject label="&lt;div style=&quot;font-size: 1px&quot;&gt;&lt;font style=&quot;font-size:12.7px;font-family:Calibri;color:#ffffff;direction:ltr;letter-spacing:0px;line-height:120%;opacity:1&quot;&gt;marketFactors&lt;br/&gt;&lt;/font&gt;&lt;/div&gt;" tags="Fundo" id="9">
          <mxCell style="verticalAlign=middle;align=center;overflow=width;vsdxID=59;fillColor=none;gradientColor=none;shape=stencil(nZBLDoAgDERP0z3SIyjew0SURgSD+Lu9kMZoXLhwN9O+tukAlrNpJg1SzDH4QW/URgNYgZTkjA4UkwJUgGXng+6DX1zLfmoymdXo17xh5zmRJ6Q42BWCfc2oJfdAr+Yv+AP9Cb7OJ3H/2JG1HNGz/84klThPVCc=);strokeColor=none;points=[];labelBackgroundColor=none;rounded=0;html=1;whiteSpace=wrap;" parent="1" vertex="1">
            <mxGeometry x="436" y="343" width="133.5" height="27" as="geometry" />
          </mxCell>
        </UserObject>
        <UserObject label="&lt;div style=&quot;font-size: 1px&quot;&gt;&lt;/div&gt;" tags="Fluxograma" id="KKUvL782GilEZLcGZL-8-55">
          <mxCell style="verticalAlign=middle;align=center;overflow=width;vsdxID=55;fillColor=#345593;gradientColor=none;shape=stencil(tVJBDsIgEHwNRxoKMdZzrf8gFloiQrOgrb8XpMbWWi/G2+zO7G4GBrHStbwTiBLnwZ5Er2rfIrZHlCrTClA+IMQqxEppQTRgL6ZOdcejMqKzvcYNQ5rL82y7i1OU3MYOIY/6kORamYm8KDKaf5NzOAYOltth1G+SfH3hk8d8UA6D9dwra2ac5tAIHE5hqXkzo1wvRLdof/SytP6Tk/WX/IuXAF5/KpXWKRJT/j0DoZXyw6o7);strokeColor=#31528f;spacingTop=-1;spacingBottom=-1;spacingLeft=-1;spacingRight=-1;points=[[0.5,1,0],[0.5,0,0],[0,0.5,0],[1,0.5,0]];labelBackgroundColor=none;rounded=0;html=1;whiteSpace=wrap;" parent="1" vertex="1">
            <mxGeometry x="437" y="580" width="169" height="40" as="geometry" />
          </mxCell>
        </UserObject>
        <UserObject label="&lt;div style=&quot;&quot;&gt;&lt;font face=&quot;Calibri&quot; color=&quot;#ffffff&quot;&gt;&lt;span style=&quot;font-size: 12.7px;&quot;&gt;marketFactorsCodominium&lt;/span&gt;&lt;/font&gt;&lt;/div&gt;" tags="Fundo" id="KKUvL782GilEZLcGZL-8-56">
          <mxCell style="verticalAlign=middle;align=center;overflow=width;vsdxID=59;fillColor=none;gradientColor=none;shape=stencil(nZBLDoAgDERP0z3SIyjew0SURgSD+Lu9kMZoXLhwN9O+tukAlrNpJg1SzDH4QW/URgNYgZTkjA4UkwJUgGXng+6DX1zLfmoymdXo17xh5zmRJ6Q42BWCfc2oJfdAr+Yv+AP9Cb7OJ3H/2JG1HNGz/84klThPVCc=);strokeColor=none;points=[];labelBackgroundColor=none;rounded=0;html=1;whiteSpace=wrap;" parent="1" vertex="1">
            <mxGeometry x="448" y="588" width="136" height="24" as="geometry" />
          </mxCell>
        </UserObject>
        <UserObject label="" tags="Conector" id="KKUvL782GilEZLcGZL-8-58">
          <mxCell style="vsdxID=109;edgeStyle=none;startArrow=none;endArrow=block;startSize=5;endSize=5;strokeColor=#4672c4;spacingTop=0;spacingBottom=0;spacingLeft=0;spacingRight=0;verticalAlign=middle;html=1;labelBackgroundColor=#ffffff;rounded=0;" parent="1" edge="1">
            <mxGeometry relative="1" as="geometry">
              <mxPoint as="offset" />
              <Array as="points">
                <mxPoint x="680" y="212" />
                <mxPoint x="680" y="410" />
              </Array>
              <mxPoint x="610" y="212" as="sourcePoint" />
              <mxPoint x="730" y="410" as="targetPoint" />
            </mxGeometry>
          </mxCell>
        </UserObject>
        <UserObject label="&lt;div style=&quot;font-size: 1px&quot;&gt;&lt;/div&gt;" tags="Fundo" id="21">
          <mxCell style="verticalAlign=middle;align=center;overflow=width;vsdxID=72;fillColor=none;gradientColor=none;shape=stencil(nZBLDoAgDERP0z3SIyjew0SURgSD+Lu9kMZoXLhwN9O+tukAlrNpJg1SzDH4QW/URgNYgZTkjA4UkwJUgGXng+6DX1zLfmoymdXo17xh5zmRJ6Q42BWCfc2oJfdAr+Yv+AP9Cb7OJ3H/2JG1HNGz/84klThPVCc=);strokeColor=none;points=[];labelBackgroundColor=none;rounded=0;html=1;whiteSpace=wrap;" parent="1" vertex="1">
            <mxGeometry x="437" y="130" width="163" height="18" as="geometry" />
          </mxCell>
        </UserObject>
        <UserObject label="" tags="Conector" id="3mUld3ImA2alMsv6uwuS-51">
          <mxCell style="vsdxID=54;edgeStyle=none;startArrow=none;endArrow=block;startSize=5;endSize=5;strokeColor=#4672c4;spacingTop=0;spacingBottom=0;spacingLeft=0;spacingRight=0;verticalAlign=middle;html=1;labelBackgroundColor=#ffffff;rounded=0;entryX=0;entryY=0.5;entryDx=0;entryDy=0;entryPerimeter=0;exitX=0.633;exitY=0.892;exitDx=0;exitDy=0;exitPerimeter=0;" edge="1" parent="1" source="3" target="KKUvL782GilEZLcGZL-8-54">
            <mxGeometry relative="1" as="geometry">
              <mxPoint as="offset" />
              <Array as="points">
                <mxPoint x="150" y="490" />
              </Array>
              <mxPoint x="157" y="287.76" as="sourcePoint" />
              <mxPoint x="447" y="610" as="targetPoint" />
            </mxGeometry>
          </mxCell>
        </UserObject>
      </root>
    </mxGraphModel>
  </diagram>
</mxfile>
